<svg width="172" height="34" viewBox="0 0 172 34" fill="none" xmlns="http://www.w3.org/2000/svg">
<path fill-rule="evenodd" clip-rule="evenodd" d="M0.0883518 0.12619C0.00930652 0.239039 0 1.18775 0 9.13918C0 17.0906 0.00930652 18.0393 0.0883518 18.1521L0.176649 18.2783H5.86547C10.3291 18.2783 11.5742 18.2631 11.6471 18.2075C11.6982 18.1684 11.7566 18.0675 11.7769 17.9832C11.8054 17.8644 11.7813 17.7974 11.669 17.6851L11.5244 17.5405H6.13098H0.737681V13.3682V9.19594H3.97082H7.20396L7.29537 9.05636C7.40717 8.88573 7.35928 8.5965 7.20567 8.51431C7.13978 8.479 5.91376 8.458 3.91913 8.458H0.737681V4.59798V0.737946H6.15265H11.5677L11.6853 0.58837C11.75 0.506117 11.8029 0.407403 11.8029 0.368973C11.8029 0.330543 11.75 0.231829 11.6853 0.149576L11.5677 0H5.87216H0.176649L0.0883518 0.12619ZM85.42 0.127721C85.3572 0.197939 83.8937 2.93759 82.1675 6.21578C80.4414 9.49397 78.9413 12.3358 78.8337 12.5309L78.6384 12.8857L79.0831 12.8841L79.5276 12.8825L82.5882 7.09093C84.2714 3.90555 85.6641 1.28976 85.683 1.27813C85.7019 1.26643 87.0567 3.93723 88.694 7.2132L91.6706 13.1695H91.8937C92.0165 13.1695 92.2011 13.1999 92.304 13.2372C92.4068 13.2744 92.5058 13.29 92.524 13.2718C92.5658 13.23 86.0653 0.218716 85.9397 0.093151C85.8065 -0.0400767 85.5549 -0.0233305 85.42 0.127721ZM30.5884 0.13964C28.8593 0.468366 27.6055 1.60985 27.091 3.32353C26.9669 3.73724 26.9374 3.9529 26.9319 4.48444C26.9244 5.23635 27.0441 5.7234 27.3927 6.35769C27.6518 6.82913 28.3451 7.51871 28.8046 7.76201C29.1855 7.96363 30.0236 8.20091 30.5571 8.25813C32.555 8.47247 33.7986 8.91773 34.8847 9.80747C35.7148 10.4875 36.2645 11.7995 36.186 12.9128C36.0327 15.0863 34.6821 16.7959 32.6816 17.3489C32.1204 17.504 30.9239 17.492 30.3418 17.3254C29.4668 17.075 28.7087 16.596 28.0859 15.9C27.885 15.6757 27.6655 15.4783 27.5978 15.4613C27.3294 15.3939 27.0743 15.6996 27.1761 15.9671C27.2617 16.1926 28.0092 16.943 28.4559 17.2518C28.9653 17.6041 29.5544 17.8855 30.1352 18.054C30.6627 18.207 31.9403 18.2699 32.4726 18.1691C34.5916 17.7682 36.2119 16.2325 36.7791 14.0876C36.9246 13.5372 36.9794 12.4729 36.8888 11.9529C36.7256 11.0151 36.3401 10.2128 35.7393 9.56083C35.1745 8.94782 34.1582 8.32239 33.2195 8.01007C32.6017 7.80458 32.1596 7.71359 30.8516 7.5228C29.4208 7.31407 29.0161 7.14195 28.4428 6.49852C27.4267 5.35806 27.4407 3.59834 28.477 2.21877C28.9343 1.60975 29.7094 1.11765 30.5003 0.93424C31.0107 0.815828 32.0127 0.813896 32.5715 0.930207C33.1626 1.05322 34.0284 1.49475 34.5796 1.9542C34.826 2.15946 35.0587 2.32737 35.0968 2.32737C35.2548 2.32737 35.4654 2.09213 35.4654 1.91565C35.4654 1.46936 34.0415 0.538075 32.8835 0.227115C32.2929 0.0685141 31.1848 0.0262801 30.5884 0.13964ZM116.487 0.139585C112.519 0.708428 109.387 3.82704 108.803 7.79015C108.679 8.635 108.719 10.1201 108.888 10.8858C109.531 13.8089 111.492 16.1964 114.215 17.3707C116.944 18.5481 120.21 18.2542 122.678 16.609C123.556 16.0237 123.676 15.8552 123.428 15.5504C123.259 15.3411 123.045 15.3833 122.613 15.7115C121.758 16.3594 120.669 16.8656 119.581 17.12C118.731 17.3188 117.418 17.3666 116.497 17.2321C114.769 16.9798 113.193 16.1725 111.897 14.876C110.703 13.6814 109.978 12.3358 109.622 10.6494C109.462 9.89483 109.447 8.40436 109.591 7.62218C109.855 6.18625 110.539 4.77661 111.524 3.64062C112.725 2.25483 114.538 1.2397 116.355 0.935945C117.074 0.815773 118.331 0.812993 119.051 0.929986C120.444 1.15619 121.818 1.76937 122.931 2.66144C123.208 2.88327 123.426 2.89235 123.585 2.68868C123.755 2.47246 123.735 2.39378 123.43 2.10048C122.583 1.28329 120.979 0.524511 119.465 0.224337C118.676 0.0679493 117.266 0.0278708 116.487 0.139585ZM52.0475 0.201914L51.9213 0.290243V9.16756V18.0449L52.0475 18.1332C52.2166 18.2518 52.3309 18.2445 52.5095 18.104L52.659 17.9863V14.3325V10.6788L55.397 10.658C58.0419 10.638 58.1493 10.6329 58.5567 10.5095C60.1031 10.0415 61.2283 9.0982 61.909 7.6995C62.2897 6.91734 62.433 6.29281 62.432 5.42106C62.4312 4.64867 62.3313 4.1195 62.0624 3.46267C61.7594 2.72257 61.4608 2.27929 60.8586 1.67571C60.2036 1.0191 59.6368 0.665457 58.8159 0.401215C58.0055 0.14038 57.6304 0.11353 54.7955 0.11353C52.5143 0.11353 52.1572 0.124997 52.0475 0.201914ZM138.041 0.217352C137.954 0.313002 137.946 1.01621 137.946 9.17743C137.946 17.6851 137.95 18.0373 138.05 18.1276C138.191 18.255 138.433 18.246 138.571 18.1081C138.683 17.9955 138.684 17.9189 138.684 9.18022C138.684 -0.591435 138.712 0.11353 138.321 0.11353C138.212 0.11353 138.095 0.15684 138.041 0.217352ZM161.132 0.175971C157.214 0.589107 154.043 3.47675 153.2 7.39945C153.029 8.19149 153.017 9.91198 153.175 10.757C154.186 16.1635 159.652 19.4453 164.843 17.7611C167.3 16.9644 169.313 15.1264 170.373 12.7134C170.846 11.638 171.028 10.7729 171.068 9.42301C171.094 8.51959 171.082 8.27471 170.978 7.67062C170.178 2.98709 165.834 -0.319873 161.132 0.175971ZM58.1172 0.990665C58.9274 1.16244 59.6135 1.52732 60.2464 2.12284C61.2565 3.07337 61.7359 4.26454 61.6649 5.64699C61.5796 7.30777 60.6552 8.70958 59.1563 9.4511C58.2683 9.89046 58.2493 9.89273 55.2835 9.91885L52.659 9.94195V5.4251V0.908242L55.1984 0.909205C57.1701 0.91 57.8226 0.928167 58.1172 0.990665ZM163.49 1.01944C165.743 1.40851 167.799 2.78513 169.054 4.74545C169.99 6.20743 170.451 8.10606 170.292 9.8509C169.957 13.561 167.333 16.5005 163.644 17.296C162.967 17.4422 161.157 17.4415 160.475 17.2948C157.725 16.702 155.604 14.9753 154.47 12.4068C153.674 10.602 153.588 8.33686 154.245 6.47122C154.982 4.38107 156.588 2.5936 158.548 1.68319C159.73 1.13462 160.695 0.920277 162.014 0.912898C162.602 0.909606 163.035 0.940938 163.49 1.01944ZM92.9188 14.2622C92.9193 14.4177 92.8968 14.4494 92.7751 14.4635C92.6333 14.4801 92.3498 14.2976 92.4154 14.232C92.4335 14.2138 92.3959 14.2127 92.332 14.2295C92.2254 14.2573 92.2898 14.4082 93.0983 16.0278C93.5839 17.0002 94.0207 17.8405 94.069 17.8952C94.1174 17.9498 94.2134 17.9946 94.2824 17.9946C94.4413 17.9946 94.7063 17.7893 94.7089 17.664C94.7112 17.5629 93.0006 14.0777 92.9488 14.0777C92.932 14.0777 92.9186 14.1608 92.9188 14.2622ZM78.3908 14.319C78.366 14.3829 78.2887 14.4198 78.1739 14.4223C78.0759 14.4246 77.9493 14.4445 77.8926 14.4669C77.7582 14.5199 76.2096 17.4611 76.2088 17.6649C76.208 17.8477 76.3911 17.9946 76.6199 17.9946C76.8135 17.9946 76.7694 18.0655 77.8566 16.0088C78.3108 15.1496 78.6555 14.4362 78.6227 14.4233C78.5899 14.4104 78.533 14.3594 78.4961 14.3098C78.4356 14.2283 78.4255 14.2291 78.3908 14.319ZM64.216 28.5907C64.1953 28.6115 64.1783 29.7737 64.1783 31.1736V33.7184H64.4895H64.8008L64.8158 31.9162L64.8308 30.1138L65.5338 31.1782L66.2368 32.2426H66.4787H66.7206L67.3832 31.1931C67.7475 30.6159 68.0692 30.129 68.0979 30.1112C68.1296 30.0916 68.1504 30.8005 68.1504 31.8986V33.7184H68.4624H68.7745V31.1357V28.5528H68.5859C68.4629 28.5528 68.3561 28.5973 68.2794 28.6806C68.2145 28.7508 67.8126 29.3575 67.386 30.0287C66.9596 30.6999 66.5848 31.2748 66.5534 31.3059C66.4726 31.3863 66.326 31.1901 65.5576 29.9719C64.6742 28.5715 64.6594 28.5528 64.4363 28.5528C64.336 28.5528 64.2369 28.5698 64.216 28.5907ZM81.7502 28.5907C81.7293 28.6115 81.7123 29.761 81.7123 31.1451V33.6617H82.0528H82.3932V31.8419C82.3932 30.7978 82.4148 30.0354 82.4436 30.0532C82.4713 30.0703 83.1237 30.9006 83.8934 31.8984C84.6631 32.8963 85.3446 33.7289 85.4076 33.7491C85.4708 33.7691 85.5844 33.7699 85.6601 33.7509L85.7979 33.7164V31.1629V28.6096H85.4583H85.1185L85.1036 30.4861L85.0886 32.3628L84.2046 31.2099C83.7183 30.5759 83.0675 29.7186 82.7584 29.305C82.2193 28.5836 82.1879 28.5528 81.9921 28.5528C81.8799 28.5528 81.7709 28.5698 81.7502 28.5907ZM89.997 31.2208V33.8319H90.3092H90.6212V31.2208V28.6096H90.3092H89.997V31.2208ZM94.7636 31.1924V33.7752H96.4092H98.0549V33.4914V33.2076H96.7213H95.3878V30.9086V28.6096H95.0757H94.7636V31.1924ZM74.9681 28.7657C74.8836 28.9259 73.3382 32.7368 73.1453 33.2601C73.0484 33.5232 72.9834 33.7755 73.0007 33.8206C73.0246 33.8828 73.102 33.8963 73.3163 33.8758C73.4726 33.8607 73.6083 33.8383 73.6182 33.826C73.628 33.8137 73.7629 33.4843 73.9182 33.0941L74.2003 32.3844L75.2505 32.3691L76.3007 32.3536L76.574 33.0503C76.7243 33.4334 76.8871 33.7788 76.9358 33.8178C77.0259 33.89 77.466 33.9171 77.5289 33.8542C77.608 33.775 75.7395 28.9968 75.539 28.7657C75.4851 28.7035 75.3719 28.6663 75.2366 28.6663C75.0885 28.6663 75.004 28.6976 74.9681 28.7657ZM104.248 28.7657C104.165 28.9249 102.619 32.735 102.428 33.2541C102.19 33.9009 102.189 33.8979 102.572 33.8775L102.89 33.8604L103.185 33.1224L103.48 32.3844L104.531 32.3691L105.582 32.3536L105.885 33.1213L106.188 33.8888H106.519C106.701 33.8888 106.85 33.8759 106.85 33.8601C106.85 33.6592 104.968 28.9385 104.819 28.7657C104.765 28.7035 104.652 28.6663 104.517 28.6663C104.369 28.6663 104.284 28.6976 104.248 28.7657ZM75.7188 30.8857C75.8631 31.2478 75.9812 31.5862 75.9812 31.6378C75.9812 31.7201 75.8939 31.7317 75.2752 31.7317C74.8868 31.7317 74.5548 31.7083 74.5371 31.6798C74.4982 31.6169 74.7703 30.866 75.0488 30.2668L75.2519 29.8301L75.3542 30.0287C75.4104 30.138 75.5746 30.5237 75.7188 30.8857ZM104.999 30.8857C105.143 31.2478 105.261 31.5862 105.261 31.6378C105.261 31.7201 105.174 31.7317 104.555 31.7317C104.167 31.7317 103.835 31.7083 103.817 31.6798C103.778 31.6169 104.05 30.866 104.329 30.2668L104.532 29.8301L104.634 30.0287C104.691 30.138 104.855 30.5237 104.999 30.8857Z" fill="black"/>
<path fill-rule="evenodd" clip-rule="evenodd" d="M81.0798 12.6302C81.0798 12.6863 81.0237 12.7154 80.9157 12.7154C80.8254 12.7154 80.7393 12.7473 80.7243 12.7862C80.7039 12.8395 80.3654 12.8619 79.3711 12.8759C78.5398 12.8877 78.0317 12.9165 78.0089 12.9534C77.9861 12.9904 77.9612 12.9834 77.9417 12.9347C77.9164 12.8711 77.8999 12.8726 77.8506 12.9424C77.8097 13.0002 77.7901 13.0046 77.7895 12.9566C77.7891 12.9176 77.7249 12.8856 77.6469 12.8856C77.5642 12.8856 77.505 12.9182 77.505 12.9638C77.505 13.0177 77.4053 13.0501 77.1815 13.0687C77.0037 13.0835 76.8502 13.1192 76.8406 13.1481C76.8309 13.177 76.7189 13.1908 76.5916 13.1786C76.4644 13.1665 76.3318 13.185 76.297 13.2198C76.2623 13.2546 76.139 13.283 76.023 13.283C75.907 13.283 75.7992 13.3149 75.7835 13.354C75.7605 13.4107 75.7539 13.4107 75.7504 13.354C75.7434 13.245 75.3487 13.2608 75.3487 13.3699C75.3487 13.4304 75.2926 13.4564 75.1643 13.4556C74.8425 13.4535 74.6462 13.4893 74.6246 13.5543C74.613 13.5889 74.5696 13.6041 74.528 13.5882C74.4863 13.5721 74.4354 13.5864 74.4147 13.6197C74.3942 13.653 74.266 13.6804 74.13 13.6804C73.9853 13.6804 73.8708 13.7097 73.8541 13.7512C73.8312 13.8081 73.8246 13.8081 73.8211 13.7512C73.814 13.6407 73.4194 13.6584 73.4194 13.7693C73.4194 13.8431 73.3493 13.856 73.008 13.8449C72.6625 13.8336 72.5936 13.8466 72.5782 13.9262C72.5681 13.9782 72.5965 14.0575 72.6413 14.1023C72.7404 14.2013 73.6111 14.2966 74.4108 14.2959C74.7667 14.2956 74.9843 14.3182 74.9972 14.3569C75.023 14.4341 75.4622 14.4385 75.4622 14.3615C75.4622 14.2776 75.9583 14.2908 75.9897 14.3757C76.0091 14.428 76.0426 14.4213 76.1172 14.3501C76.2011 14.2701 76.2059 14.2387 76.1455 14.1656C76.0837 14.0911 76.0899 14.0777 76.1869 14.0777C76.2497 14.0777 76.3146 14.1126 76.3309 14.1551C76.3485 14.2011 76.4804 14.2442 76.6551 14.2609C76.8177 14.2765 76.9714 14.3246 76.9982 14.3679C77.0352 14.4277 77.1981 14.446 77.6729 14.4438C78.216 14.4412 78.3089 14.4269 78.3761 14.3351C78.4514 14.2319 78.455 14.232 78.5139 14.3371C78.5649 14.4283 78.6474 14.4466 79.0451 14.455C79.3262 14.4608 79.5243 14.4898 79.5366 14.5267C79.5625 14.6043 79.8126 14.6083 79.8598 14.5319C79.8791 14.5006 80.0349 14.4751 80.206 14.4751C80.4219 14.4751 80.5641 14.4416 80.6707 14.3659C80.7579 14.3039 80.9723 14.2407 81.1654 14.2199C81.4711 14.1871 81.5285 14.1984 81.7212 14.3291C81.9443 14.4806 82.0409 14.5048 82.1324 14.4325C82.1621 14.409 82.3779 14.4044 82.6119 14.4222C82.8461 14.44 82.9673 14.4592 82.8815 14.4648C82.744 14.4739 82.7254 14.4979 82.7254 14.6676C82.7254 14.9063 82.7703 14.9197 83.5908 14.9237L84.2008 14.9268V14.7861C84.2008 14.704 84.1681 14.6454 84.1222 14.6454C84.079 14.6454 83.9997 14.5782 83.946 14.4963C83.8656 14.3735 83.8619 14.3387 83.9254 14.2991C83.9776 14.2664 84.0086 14.2824 84.0221 14.3488C84.0483 14.4783 84.2577 14.7021 84.3526 14.7021C84.3939 14.7021 84.4278 14.7277 84.4278 14.7589C84.4278 14.7904 84.5791 14.8156 84.7682 14.8156C84.9555 14.8156 85.1088 14.7963 85.1088 14.7727C85.1088 14.7491 85.1853 14.6959 85.2789 14.6544C85.3726 14.613 85.4492 14.5429 85.4492 14.4987C85.4492 14.3187 85.5571 14.4338 85.5734 14.6311C85.5895 14.8246 85.6103 14.8488 85.8023 14.8963C85.9942 14.9436 86.0245 14.9345 86.1327 14.7969C86.1982 14.7135 86.2883 14.6454 86.3329 14.6454C86.3774 14.6454 86.4139 14.6085 86.4139 14.5636C86.4139 14.3853 86.544 14.421 86.799 14.669C87.066 14.9288 87.1914 14.9701 87.4778 14.8934C87.5567 14.8722 87.6055 14.8154 87.6055 14.7448C87.6055 14.6375 87.633 14.6322 88.0439 14.6585C88.285 14.674 88.6693 14.6657 88.8978 14.6402C89.3014 14.5949 89.5915 14.6483 89.5915 14.7681C89.5915 14.7942 89.6809 14.8156 89.7902 14.8156C89.973 14.8156 89.9888 14.8022 89.9888 14.6454C89.9888 14.5517 90.0143 14.4751 90.0455 14.4751C90.1444 14.4751 90.1067 14.2575 90.003 14.2303C89.9399 14.2139 89.9589 14.202 90.055 14.1978C90.1382 14.1942 90.2191 14.1594 90.2349 14.1202C90.2578 14.0635 90.2644 14.0635 90.268 14.1202C90.2705 14.16 90.3462 14.1912 90.4401 14.1912C90.7028 14.1912 90.8967 14.3036 90.8967 14.4558C90.8967 14.5853 90.9096 14.5886 91.4114 14.5886C91.914 14.5886 92.0883 14.5326 92.0883 14.3711C92.0883 14.3408 92.1694 14.2876 92.2686 14.253C92.3677 14.2185 92.432 14.2069 92.4115 14.2275C92.3426 14.2964 92.62 14.4806 92.7669 14.4634C92.8884 14.4494 92.911 14.4177 92.9106 14.2622L92.91 14.0777H93.2085C93.3726 14.0777 93.5069 14.0992 93.5069 14.1255C93.5069 14.1769 93.8859 14.3047 94.0384 14.3047C94.0933 14.3047 94.1312 14.2584 94.1312 14.1912C94.1312 14.1028 94.1719 14.0757 94.3156 14.0689C94.6026 14.0551 94.7819 14.0807 94.8026 14.1385C94.8305 14.2164 95.025 14.2026 95.0582 14.1202C95.0811 14.0635 95.0877 14.0635 95.0913 14.1202C95.097 14.2093 96.2874 14.2234 96.2874 14.1345C96.2874 14.1032 96.3258 14.0777 96.3725 14.0777C96.4194 14.0777 96.4576 14.1032 96.4576 14.1345C96.4576 14.17 96.7982 14.1912 97.3656 14.1912C97.933 14.1912 98.2734 14.17 98.2734 14.1345C98.2734 14.1032 98.3264 14.0777 98.3909 14.0777C98.4795 14.0777 98.5039 14.0471 98.4903 13.953C98.4737 13.8392 98.4438 13.8295 98.1533 13.8431C97.9068 13.8547 97.8268 13.8381 97.8005 13.7693C97.7569 13.6557 97.5925 13.6528 97.5925 13.7655C97.5925 13.8123 97.557 13.8506 97.5135 13.8506C97.4701 13.8506 97.4198 13.8123 97.4017 13.7655C97.3589 13.6537 96.483 13.6408 96.4384 13.7512C96.4156 13.8081 96.409 13.8081 96.4054 13.7512C96.403 13.7123 96.3294 13.6804 96.242 13.6804C96.1547 13.6804 96.0556 13.6528 96.0218 13.619C95.9849 13.5819 95.7813 13.5652 95.5069 13.5765C95.1869 13.5897 95.0329 13.5734 94.9844 13.5213C94.9351 13.4684 94.8952 13.4646 94.8431 13.5079C94.7905 13.5515 94.7514 13.5453 94.702 13.4857C94.6644 13.4405 94.6004 13.416 94.5599 13.4316C94.5194 13.4471 94.4709 13.42 94.4523 13.3714C94.4003 13.2357 94.2159 13.2665 94.1312 13.4249C94.051 13.5747 93.9894 13.6021 93.9341 13.5126C93.9156 13.4827 93.865 13.4719 93.8216 13.4885C93.7778 13.5054 93.7153 13.4677 93.6813 13.4043C93.6266 13.3021 93.5482 13.2867 92.9534 13.2618C92.5869 13.2464 92.1498 13.2167 91.9822 13.1957C91.8062 13.1737 91.6264 13.1821 91.5566 13.2157C91.337 13.3212 91.0997 13.3343 90.9818 13.2472C90.904 13.1898 90.753 13.1674 90.5028 13.1763C90.2632 13.1848 90.1296 13.1662 90.115 13.1226C90.1028 13.0858 90.0311 13.056 89.9557 13.056C89.8716 13.056 89.8186 13.023 89.8186 12.9707C89.8186 12.9239 89.783 12.8856 89.7394 12.8856C89.696 12.8856 89.6458 12.9239 89.6278 12.9707C89.6099 13.0176 89.556 13.056 89.5082 13.056C89.4605 13.056 89.4213 13.0176 89.4213 12.9707C89.4213 12.9054 89.3487 12.8856 89.1075 12.8856C88.8807 12.8856 88.7845 12.9093 88.761 12.9707C88.7151 13.0902 88.4215 13.0807 88.3746 12.9582C88.3424 12.8744 88.3295 12.8724 88.2842 12.944C88.2485 13.0005 88.2312 13.0046 88.2305 12.9566C88.2301 12.9119 88.146 12.8856 88.0028 12.8856C87.8387 12.8856 87.7757 12.9093 87.7757 12.9707C87.7757 13.0338 87.7095 13.056 87.5204 13.056C87.3312 13.056 87.2651 13.0338 87.2651 12.9707C87.2651 12.9178 87.2114 12.8856 87.1232 12.8856C87.0164 12.8856 86.9813 12.9154 86.9813 13.0062C86.9813 13.112 86.9585 13.1224 86.7969 13.0906C86.6955 13.0707 86.584 13.0164 86.5495 12.97C86.465 12.8567 86.3712 12.8635 86.3395 12.985C86.3148 13.0796 86.3132 13.0796 86.3069 12.985C86.2994 12.8712 86.1539 12.8501 86.111 12.9566C86.088 13.0134 86.0814 13.0134 86.0779 12.9566C86.0755 12.9176 86.0244 12.8856 85.9646 12.8856C85.9047 12.8856 85.843 12.9176 85.8272 12.9566C85.8044 13.0134 85.7978 13.0134 85.7941 12.9566C85.7917 12.9176 85.7288 12.8856 85.6544 12.8856C85.5707 12.8856 85.5087 12.8457 85.4918 12.7809C85.4704 12.6993 85.4249 12.6818 85.2866 12.7022C85.1499 12.7221 85.1088 12.7069 85.1088 12.6365C85.1088 12.5604 85.0369 12.545 84.6831 12.545C84.2705 12.545 84.2576 12.5492 84.2576 12.6828C84.2576 12.7663 84.2967 12.8308 84.3568 12.8465C84.4114 12.8607 84.362 12.8755 84.2468 12.879C84.1316 12.8826 84.0212 12.8597 84.0017 12.828C83.982 12.7963 83.9454 12.7829 83.9203 12.7984C83.8951 12.814 83.827 12.7633 83.7689 12.6858C83.6892 12.5796 83.6107 12.545 83.4496 12.545C83.2597 12.545 83.2361 12.5607 83.2361 12.687C83.2361 12.7721 83.2037 12.8289 83.1552 12.8289C83.1106 12.8289 83.0239 12.765 82.9626 12.687C82.838 12.5286 82.7523 12.5067 82.7081 12.6219C82.6854 12.681 82.5754 12.6925 82.2338 12.6711C81.9893 12.6558 81.7807 12.6213 81.7702 12.5942C81.7598 12.5672 81.6003 12.545 81.4156 12.545C81.155 12.545 81.0798 12.5641 81.0798 12.6302Z" fill="#BDB377"/>
</svg>
